<svg id="visual" viewBox="0 0 2560 1440" width="2560" height="1440" xmlns="http://www.w3.org/2000/svg" xmlns:xlink="http://www.w3.org/1999/xlink" version="1.1"><rect x="0" y="0" width="2560" height="1440" fill="#E3E1D9"></rect><path d="M0 300L20.3 259.3C40.7 218.7 81.3 137.3 122 122.7C162.7 108 203.3 160 244 219C284.7 278 325.3 344 366 380.3C406.7 416.7 447.3 423.3 488 359.8C528.7 296.3 569.3 162.7 609.8 101.2C650.3 39.7 690.7 50.3 731.2 51.2C771.7 52 812.3 43 853 103.2C893.7 163.3 934.3 292.7 975 296.5C1015.7 300.3 1056.3 178.7 1097 185C1137.7 191.3 1178.3 325.7 1219 339.2C1259.7 352.7 1300.3 245.3 1341 242C1381.7 238.7 1422.3 339.3 1463 375C1503.7 410.7 1544.3 381.3 1585 388.7C1625.7 396 1666.3 440 1707 454.3C1747.7 468.7 1788.3 453.3 1828.8 452.2C1869.3 451 1909.7 464 1950.2 413.3C1990.7 362.7 2031.3 248.3 2072 247.3C2112.7 246.3 2153.3 358.7 2194 363.2C2234.7 367.7 2275.3 264.3 2316 246C2356.7 227.7 2397.3 294.3 2438 296.5C2478.7 298.7 2519.3 236.3 2539.7 205.2L2560 174L2560 1441L2539.7 1441C2519.3 1441 2478.7 1441 2438 1441C2397.3 1441 2356.7 1441 2316 1441C2275.3 1441 2234.7 1441 2194 1441C2153.3 1441 2112.7 1441 2072 1441C2031.3 1441 1990.7 1441 1950.2 1441C1909.7 1441 1869.3 1441 1828.8 1441C1788.3 1441 1747.7 1441 1707 1441C1666.3 1441 1625.7 1441 1585 1441C1544.3 1441 1503.7 1441 1463 1441C1422.3 1441 1381.7 1441 1341 1441C1300.3 1441 1259.7 1441 1219 1441C1178.3 1441 1137.7 1441 1097 1441C1056.3 1441 1015.7 1441 975 1441C934.3 1441 893.7 1441 853 1441C812.3 1441 771.7 1441 731.2 1441C690.7 1441 650.3 1441 609.8 1441C569.3 1441 528.7 1441 488 1441C447.3 1441 406.7 1441 366 1441C325.3 1441 284.7 1441 244 1441C203.3 1441 162.7 1441 122 1441C81.3 1441 40.7 1441 20.3 1441L0 1441Z" fill="#cabea9"></path><path d="M0 578L20.3 552.3C40.7 526.7 81.3 475.3 122 449.5C162.7 423.7 203.3 423.3 244 380.7C284.7 338 325.3 253 366 220.2C406.7 187.3 447.3 206.7 488 265.3C528.7 324 569.3 422 609.8 430.2C650.3 438.3 690.7 356.7 731.2 357.7C771.7 358.7 812.3 442.3 853 468C893.7 493.7 934.3 461.3 975 428.2C1015.7 395 1056.3 361 1097 330.3C1137.7 299.7 1178.3 272.3 1219 276.8C1259.7 281.3 1300.3 317.7 1341 307.2C1381.7 296.7 1422.3 239.3 1463 268.3C1503.7 297.3 1544.3 412.7 1585 483.3C1625.7 554 1666.3 580 1707 519.3C1747.7 458.7 1788.3 311.3 1828.8 255.8C1869.3 200.3 1909.7 236.7 1950.2 278C1990.7 319.3 2031.3 365.7 2072 344.2C2112.7 322.7 2153.3 233.3 2194 235.5C2234.7 237.7 2275.3 331.3 2316 372.3C2356.7 413.3 2397.3 401.7 2438 372.2C2478.7 342.7 2519.3 295.3 2539.7 271.7L2560 248L2560 1441L2539.7 1441C2519.3 1441 2478.7 1441 2438 1441C2397.3 1441 2356.7 1441 2316 1441C2275.3 1441 2234.7 1441 2194 1441C2153.3 1441 2112.7 1441 2072 1441C2031.3 1441 1990.7 1441 1950.2 1441C1909.7 1441 1869.3 1441 1828.8 1441C1788.3 1441 1747.7 1441 1707 1441C1666.3 1441 1625.7 1441 1585 1441C1544.3 1441 1503.7 1441 1463 1441C1422.3 1441 1381.7 1441 1341 1441C1300.3 1441 1259.7 1441 1219 1441C1178.3 1441 1137.7 1441 1097 1441C1056.3 1441 1015.7 1441 975 1441C934.3 1441 893.7 1441 853 1441C812.3 1441 771.7 1441 731.2 1441C690.7 1441 650.3 1441 609.8 1441C569.3 1441 528.7 1441 488 1441C447.3 1441 406.7 1441 366 1441C325.3 1441 284.7 1441 244 1441C203.3 1441 162.7 1441 122 1441C81.3 1441 40.7 1441 20.3 1441L0 1441Z" fill="#bfb39d"></path><path d="M0 503L20.3 515.8C40.7 528.7 81.3 554.3 122 568.2C162.7 582 203.3 584 244 576.7C284.7 569.3 325.3 552.7 366 541.5C406.7 530.3 447.3 524.7 488 514.8C528.7 505 569.3 491 609.8 473.7C650.3 456.3 690.7 435.7 731.2 471.2C771.7 506.7 812.3 598.3 853 637.2C893.7 676 934.3 662 975 648.3C1015.7 634.7 1056.3 621.3 1097 619.8C1137.7 618.3 1178.3 628.7 1219 607.8C1259.7 587 1300.3 535 1341 483.2C1381.7 431.3 1422.3 379.7 1463 387.3C1503.7 395 1544.3 462 1585 462.8C1625.7 463.7 1666.3 398.3 1707 360.8C1747.7 323.3 1788.3 313.7 1828.8 337.2C1869.3 360.7 1909.7 417.3 1950.2 452.7C1990.7 488 2031.3 502 2072 471.8C2112.7 441.7 2153.3 367.3 2194 340.5C2234.7 313.7 2275.3 334.3 2316 355.7C2356.7 377 2397.3 399 2438 422.7C2478.7 446.3 2519.3 471.7 2539.7 484.3L2560 497L2560 1441L2539.7 1441C2519.3 1441 2478.7 1441 2438 1441C2397.3 1441 2356.7 1441 2316 1441C2275.3 1441 2234.7 1441 2194 1441C2153.3 1441 2112.7 1441 2072 1441C2031.3 1441 1990.7 1441 1950.2 1441C1909.7 1441 1869.3 1441 1828.8 1441C1788.3 1441 1747.7 1441 1707 1441C1666.3 1441 1625.7 1441 1585 1441C1544.3 1441 1503.7 1441 1463 1441C1422.3 1441 1381.7 1441 1341 1441C1300.3 1441 1259.7 1441 1219 1441C1178.3 1441 1137.7 1441 1097 1441C1056.3 1441 1015.7 1441 975 1441C934.3 1441 893.7 1441 853 1441C812.3 1441 771.7 1441 731.2 1441C690.7 1441 650.3 1441 609.8 1441C569.3 1441 528.7 1441 488 1441C447.3 1441 406.7 1441 366 1441C325.3 1441 284.7 1441 244 1441C203.3 1441 162.7 1441 122 1441C81.3 1441 40.7 1441 20.3 1441L0 1441Z" fill="#b4a792"></path><path d="M0 434L20.3 475C40.7 516 81.3 598 122 628.5C162.7 659 203.3 638 244 618.5C284.7 599 325.3 581 366 572.5C406.7 564 447.3 565 488 613C528.7 661 569.3 756 609.8 790C650.3 824 690.7 797 731.2 727.7C771.7 658.3 812.3 546.7 853 494.8C893.7 443 934.3 451 975 458.8C1015.7 466.7 1056.3 474.3 1097 514.8C1137.7 555.3 1178.3 628.7 1219 637.3C1259.7 646 1300.3 590 1341 545.3C1381.7 500.7 1422.3 467.3 1463 472.2C1503.7 477 1544.3 520 1585 587.7C1625.7 655.3 1666.3 747.7 1707 765.7C1747.7 783.7 1788.3 727.3 1828.8 693.2C1869.3 659 1909.7 647 1950.2 613.5C1990.7 580 2031.3 525 2072 500.7C2112.7 476.3 2153.3 482.7 2194 547.2C2234.7 611.7 2275.3 734.3 2316 757.7C2356.7 781 2397.3 705 2438 654.2C2478.7 603.3 2519.3 577.7 2539.7 564.8L2560 552L2560 1441L2539.7 1441C2519.3 1441 2478.7 1441 2438 1441C2397.3 1441 2356.7 1441 2316 1441C2275.3 1441 2234.7 1441 2194 1441C2153.3 1441 2112.7 1441 2072 1441C2031.3 1441 1990.7 1441 1950.2 1441C1909.7 1441 1869.3 1441 1828.8 1441C1788.3 1441 1747.7 1441 1707 1441C1666.3 1441 1625.7 1441 1585 1441C1544.3 1441 1503.7 1441 1463 1441C1422.3 1441 1381.7 1441 1341 1441C1300.3 1441 1259.7 1441 1219 1441C1178.3 1441 1137.7 1441 1097 1441C1056.3 1441 1015.7 1441 975 1441C934.3 1441 893.7 1441 853 1441C812.3 1441 771.7 1441 731.2 1441C690.7 1441 650.3 1441 609.8 1441C569.3 1441 528.7 1441 488 1441C447.3 1441 406.7 1441 366 1441C325.3 1441 284.7 1441 244 1441C203.3 1441 162.7 1441 122 1441C81.3 1441 40.7 1441 20.3 1441L0 1441Z" fill="#a99c86"></path><path d="M0 791L20.3 758.5C40.7 726 81.3 661 122 644C162.7 627 203.3 658 244 669.5C284.7 681 325.3 673 366 694.2C406.7 715.3 447.3 765.7 488 788.2C528.7 810.7 569.3 805.3 609.8 814.3C650.3 823.3 690.7 846.7 731.2 853C771.7 859.3 812.3 848.7 853 815.7C893.7 782.7 934.3 727.3 975 749.8C1015.7 772.3 1056.3 872.7 1097 902.7C1137.7 932.7 1178.3 892.3 1219 826.2C1259.7 760 1300.3 668 1341 635.5C1381.7 603 1422.3 630 1463 656.7C1503.7 683.3 1544.3 709.7 1585 703.5C1625.7 697.3 1666.3 658.7 1707 654C1747.7 649.3 1788.3 678.7 1828.8 726.2C1869.3 773.7 1909.7 839.3 1950.2 844.8C1990.7 850.3 2031.3 795.7 2072 768.7C2112.7 741.7 2153.3 742.3 2194 756C2234.7 769.7 2275.3 796.3 2316 820C2356.7 843.7 2397.3 864.3 2438 845.3C2478.7 826.3 2519.3 767.7 2539.7 738.3L2560 709L2560 1441L2539.7 1441C2519.3 1441 2478.7 1441 2438 1441C2397.3 1441 2356.7 1441 2316 1441C2275.3 1441 2234.7 1441 2194 1441C2153.3 1441 2112.7 1441 2072 1441C2031.3 1441 1990.7 1441 1950.2 1441C1909.7 1441 1869.3 1441 1828.8 1441C1788.3 1441 1747.7 1441 1707 1441C1666.3 1441 1625.7 1441 1585 1441C1544.3 1441 1503.7 1441 1463 1441C1422.3 1441 1381.7 1441 1341 1441C1300.3 1441 1259.7 1441 1219 1441C1178.3 1441 1137.7 1441 1097 1441C1056.3 1441 1015.7 1441 975 1441C934.3 1441 893.7 1441 853 1441C812.3 1441 771.7 1441 731.2 1441C690.7 1441 650.3 1441 609.8 1441C569.3 1441 528.7 1441 488 1441C447.3 1441 406.7 1441 366 1441C325.3 1441 284.7 1441 244 1441C203.3 1441 162.7 1441 122 1441C81.3 1441 40.7 1441 20.3 1441L0 1441Z" fill="#9e917b"></path><path d="M0 939L20.3 910.8C40.7 882.7 81.3 826.3 122 823C162.7 819.7 203.3 869.3 244 918.3C284.7 967.3 325.3 1015.7 366 1031.7C406.7 1047.7 447.3 1031.3 488 1014.2C528.7 997 569.3 979 609.8 955C650.3 931 690.7 901 731.2 877.8C771.7 854.7 812.3 838.3 853 820C893.7 801.7 934.3 781.3 975 824.3C1015.7 867.3 1056.3 973.7 1097 1011.8C1137.7 1050 1178.3 1020 1219 993.2C1259.7 966.3 1300.3 942.7 1341 902.7C1381.7 862.7 1422.3 806.3 1463 774C1503.7 741.7 1544.3 733.3 1585 749C1625.7 764.7 1666.3 804.3 1707 836C1747.7 867.7 1788.3 891.3 1828.8 904.3C1869.3 917.3 1909.7 919.7 1950.2 933.8C1990.7 948 2031.3 974 2072 971C2112.7 968 2153.3 936 2194 940.7C2234.7 945.3 2275.3 986.7 2316 969.8C2356.7 953 2397.3 878 2438 867.8C2478.7 857.7 2519.3 912.3 2539.7 939.7L2560 967L2560 1441L2539.7 1441C2519.3 1441 2478.7 1441 2438 1441C2397.3 1441 2356.7 1441 2316 1441C2275.3 1441 2234.7 1441 2194 1441C2153.3 1441 2112.7 1441 2072 1441C2031.3 1441 1990.7 1441 1950.2 1441C1909.7 1441 1869.3 1441 1828.8 1441C1788.3 1441 1747.7 1441 1707 1441C1666.3 1441 1625.7 1441 1585 1441C1544.3 1441 1503.7 1441 1463 1441C1422.3 1441 1381.7 1441 1341 1441C1300.3 1441 1259.7 1441 1219 1441C1178.3 1441 1137.7 1441 1097 1441C1056.3 1441 1015.7 1441 975 1441C934.3 1441 893.7 1441 853 1441C812.3 1441 771.7 1441 731.2 1441C690.7 1441 650.3 1441 609.8 1441C569.3 1441 528.7 1441 488 1441C447.3 1441 406.7 1441 366 1441C325.3 1441 284.7 1441 244 1441C203.3 1441 162.7 1441 122 1441C81.3 1441 40.7 1441 20.3 1441L0 1441Z" fill="#938670"></path><path d="M0 959L20.3 994.5C40.7 1030 81.3 1101 122 1117C162.7 1133 203.3 1094 244 1080.8C284.7 1067.7 325.3 1080.3 366 1049.5C406.7 1018.7 447.3 944.3 488 918C528.7 891.7 569.3 913.3 609.8 923C650.3 932.7 690.7 930.3 731.2 954.8C771.7 979.3 812.3 1030.7 853 1074.7C893.7 1118.7 934.3 1155.3 975 1175.8C1015.7 1196.3 1056.3 1200.7 1097 1157C1137.7 1113.3 1178.3 1021.7 1219 973.8C1259.7 926 1300.3 922 1341 922.3C1381.7 922.7 1422.3 927.3 1463 951.2C1503.7 975 1544.3 1018 1585 1041.7C1625.7 1065.3 1666.3 1069.7 1707 1066C1747.7 1062.3 1788.3 1050.7 1828.8 1060.2C1869.3 1069.7 1909.7 1100.3 1950.2 1118.5C1990.7 1136.7 2031.3 1142.3 2072 1111.7C2112.7 1081 2153.3 1014 2194 1017.8C2234.7 1021.7 2275.3 1096.3 2316 1092C2356.7 1087.7 2397.3 1004.3 2438 990C2478.7 975.7 2519.3 1030.3 2539.7 1057.7L2560 1085L2560 1441L2539.7 1441C2519.3 1441 2478.7 1441 2438 1441C2397.3 1441 2356.7 1441 2316 1441C2275.3 1441 2234.7 1441 2194 1441C2153.3 1441 2112.7 1441 2072 1441C2031.3 1441 1990.7 1441 1950.2 1441C1909.7 1441 1869.3 1441 1828.8 1441C1788.3 1441 1747.7 1441 1707 1441C1666.3 1441 1625.7 1441 1585 1441C1544.3 1441 1503.7 1441 1463 1441C1422.3 1441 1381.7 1441 1341 1441C1300.3 1441 1259.7 1441 1219 1441C1178.3 1441 1137.7 1441 1097 1441C1056.3 1441 1015.7 1441 975 1441C934.3 1441 893.7 1441 853 1441C812.3 1441 771.7 1441 731.2 1441C690.7 1441 650.3 1441 609.8 1441C569.3 1441 528.7 1441 488 1441C447.3 1441 406.7 1441 366 1441C325.3 1441 284.7 1441 244 1441C203.3 1441 162.7 1441 122 1441C81.3 1441 40.7 1441 20.3 1441L0 1441Z" fill="#897b65"></path><path d="M0 1282L20.3 1260.2C40.7 1238.3 81.3 1194.7 122 1175.7C162.7 1156.7 203.3 1162.3 244 1143.7C284.7 1125 325.3 1082 366 1061.3C406.7 1040.7 447.3 1042.3 488 1082.8C528.7 1123.3 569.3 1202.7 609.8 1224C650.3 1245.3 690.7 1208.7 731.2 1183.8C771.7 1159 812.3 1146 853 1122.7C893.7 1099.3 934.3 1065.7 975 1084.3C1015.7 1103 1056.3 1174 1097 1219.5C1137.7 1265 1178.3 1285 1219 1278C1259.7 1271 1300.3 1237 1341 1212.5C1381.7 1188 1422.3 1173 1463 1160.8C1503.7 1148.7 1544.3 1139.3 1585 1139.5C1625.7 1139.7 1666.3 1149.3 1707 1141.2C1747.7 1133 1788.3 1107 1828.8 1095.5C1869.3 1084 1909.7 1087 1950.2 1094.3C1990.7 1101.7 2031.3 1113.3 2072 1150.7C2112.7 1188 2153.3 1251 2194 1252.7C2234.7 1254.3 2275.3 1194.7 2316 1152.2C2356.7 1109.7 2397.3 1084.3 2438 1088.2C2478.7 1092 2519.3 1125 2539.7 1141.5L2560 1158L2560 1441L2539.7 1441C2519.3 1441 2478.7 1441 2438 1441C2397.3 1441 2356.7 1441 2316 1441C2275.3 1441 2234.7 1441 2194 1441C2153.3 1441 2112.7 1441 2072 1441C2031.3 1441 1990.7 1441 1950.2 1441C1909.7 1441 1869.3 1441 1828.8 1441C1788.3 1441 1747.7 1441 1707 1441C1666.3 1441 1625.7 1441 1585 1441C1544.3 1441 1503.7 1441 1463 1441C1422.3 1441 1381.7 1441 1341 1441C1300.3 1441 1259.7 1441 1219 1441C1178.3 1441 1137.7 1441 1097 1441C1056.3 1441 1015.7 1441 975 1441C934.3 1441 893.7 1441 853 1441C812.3 1441 771.7 1441 731.2 1441C690.7 1441 650.3 1441 609.8 1441C569.3 1441 528.7 1441 488 1441C447.3 1441 406.7 1441 366 1441C325.3 1441 284.7 1441 244 1441C203.3 1441 162.7 1441 122 1441C81.3 1441 40.7 1441 20.3 1441L0 1441Z" fill="#7e705a"></path><path d="M0 1354L20.3 1324.5C40.7 1295 81.3 1236 122 1241.7C162.7 1247.3 203.3 1317.7 244 1331.2C284.7 1344.7 325.3 1301.3 366 1309.5C406.7 1317.7 447.3 1377.3 488 1402.2C528.7 1427 569.3 1417 609.8 1385.5C650.3 1354 690.7 1301 731.2 1269.2C771.7 1237.3 812.3 1226.7 853 1226C893.7 1225.3 934.3 1234.7 975 1231.3C1015.7 1228 1056.3 1212 1097 1203.3C1137.7 1194.7 1178.3 1193.3 1219 1203.7C1259.7 1214 1300.3 1236 1341 1265.2C1381.7 1294.3 1422.3 1330.7 1463 1333.7C1503.7 1336.7 1544.3 1306.3 1585 1275C1625.7 1243.7 1666.3 1211.3 1707 1229.8C1747.7 1248.3 1788.3 1317.7 1828.8 1313.8C1869.3 1310 1909.7 1233 1950.2 1241C1990.7 1249 2031.3 1342 2072 1347.7C2112.7 1353.3 2153.3 1271.7 2194 1249C2234.7 1226.3 2275.3 1262.7 2316 1270.3C2356.7 1278 2397.3 1257 2438 1251.7C2478.7 1246.3 2519.3 1256.7 2539.7 1261.8L2560 1267L2560 1441L2539.7 1441C2519.3 1441 2478.7 1441 2438 1441C2397.3 1441 2356.7 1441 2316 1441C2275.3 1441 2234.7 1441 2194 1441C2153.3 1441 2112.7 1441 2072 1441C2031.3 1441 1990.7 1441 1950.2 1441C1909.7 1441 1869.3 1441 1828.8 1441C1788.3 1441 1747.7 1441 1707 1441C1666.3 1441 1625.7 1441 1585 1441C1544.3 1441 1503.7 1441 1463 1441C1422.3 1441 1381.7 1441 1341 1441C1300.3 1441 1259.7 1441 1219 1441C1178.3 1441 1137.7 1441 1097 1441C1056.3 1441 1015.7 1441 975 1441C934.3 1441 893.7 1441 853 1441C812.3 1441 771.7 1441 731.2 1441C690.7 1441 650.3 1441 609.8 1441C569.3 1441 528.7 1441 488 1441C447.3 1441 406.7 1441 366 1441C325.3 1441 284.7 1441 244 1441C203.3 1441 162.7 1441 122 1441C81.3 1441 40.7 1441 20.3 1441L0 1441Z" fill="#74664f"></path></svg>